# xmcd
#
# Track frame offsets: 
#        150
#        15577
#        27412
#        38652
#        52105
#        64125
#        79562
#        93275
#        105452
#        118370
#        129755
#        140032
#
# Disc length: 1997 seconds
#
# Revision: 1
# Processed by: cddbd v1.5.2PL0 Copyright (c) Steve Scherf et al.
# Submitted via: ExactAudioCopy v0.95b4
#
DISCID=9b07cb0c
DTITLE=Various Artist - The Country Collection  - Disc 2
DYEAR=1997
DGENRE=Country
TTITLE0=Al Hirt and Ace Cannon - Paper Roses
TTITLE1=Bonnie Guitar - Dark Moon
TTITLE2=Don Gibson - Oh, Lonesome Me
TTITLE3=Lynn Anderson - Top Of The World
TTITLE4=Jack Greene - There Goes My Everything
TTITLE5=Melba Montgomery - No Charge
TTITLE6=Dickey Lee - 9,999,999 Tears
TTITLE7=Johnny Paycheck - Take This Job And Shove It
TTITLE8=Claude King - Wolverton Mountain
TTITLE9=Wynn Stewart - It's Such A Pretty World Today
TTITLE10=Warner Mack - The Bridge Washed Out
TTITLE11=Hank Locklin - Please Help Me, I'm Falling (In Love With You)
EXTD=
EXTT0=
EXTT1=
EXTT2=
EXTT3=
EXTT4=
EXTT5=
EXTT6=
EXTT7=
EXTT8=
EXTT9=
EXTT10=
EXTT11=
PLAYORDER=
